<?xml version="1.0" encoding="UTF-8" standalone="no"?><svg xmlns="http://www.w3.org/2000/svg" xmlns:xlink="http://www.w3.org/1999/xlink" fill="#000000" height="344.9" preserveAspectRatio="xMidYMid meet" version="1" viewBox="-0.6 0.0 342.9 344.9" width="342.9" zoomAndPan="magnify"><defs><clipPath id="a"><path d="M 28 0 L 342.289062 0 L 342.289062 315 L 28 315 Z M 28 0"/></clipPath><clipPath id="b"><path d="M 47 283 L 110 283 L 110 344.851562 L 47 344.851562 Z M 47 283"/></clipPath></defs><g><g clip-path="url(#a)" id="change1_2"><path d="M 183.316406 226.5 C 197.046875 219.472656 211.679688 210.636719 226.359375 200.585938 C 232.1875 232.636719 223.175781 266.878906 199.269531 292.105469 C 198.96875 269.128906 193.460938 246.742188 183.316406 226.5 Z M 130.566406 238.292969 C 118.140625 250.722656 98.503906 253.261719 88.566406 253.714844 C 89 243.796875 91.515625 224.210938 104.003906 211.726562 C 109.5625 206.164062 115.382812 201.757812 120.9375 198.523438 L 143.769531 221.355469 C 140.535156 226.914062 136.128906 232.730469 130.566406 238.292969 Z M 50.1875 143.023438 C 75.417969 119.117188 109.660156 110.105469 141.707031 115.933594 C 131.660156 130.617188 122.820312 145.246094 115.796875 158.976562 C 95.550781 148.832031 73.167969 143.324219 50.1875 143.023438 Z M 326.722656 15.589844 C 328.679688 24.371094 332.484375 49.085938 322.347656 78.671875 L 263.625 19.949219 C 293.097656 9.878906 317.929688 13.660156 326.722656 15.589844 Z M 164.929688 220.6875 C 164.1875 221.015625 163.445312 221.347656 162.71875 221.660156 L 159.835938 218.78125 L 120.632812 179.578125 C 120.945312 178.847656 121.277344 178.105469 121.605469 177.367188 C 123.328125 173.476562 125.230469 169.480469 127.308594 165.394531 C 134.742188 150.785156 144.34375 135.070312 155.335938 119.363281 C 157.949219 115.628906 160.636719 111.894531 163.394531 108.175781 C 177.347656 89.371094 193.03125 70.96875 209.097656 54.902344 C 221.761719 42.234375 235.628906 32.304688 250.367188 25.335938 L 316.960938 91.925781 C 309.988281 106.664062 300.058594 120.53125 287.394531 133.199219 C 271.328125 149.261719 252.921875 164.949219 234.121094 178.902344 C 230.402344 181.660156 226.667969 184.347656 222.933594 186.960938 C 207.222656 197.949219 191.511719 207.554688 176.902344 214.984375 C 172.8125 217.0625 168.816406 218.96875 164.929688 220.6875 Z M 238.109375 192.289062 C 258.804688 177.238281 279.140625 160.089844 296.714844 142.519531 C 311.71875 127.515625 323.214844 110.886719 330.894531 93.097656 C 350.558594 47.527344 338.917969 9.746094 338.414062 8.160156 C 337.765625 6.125 336.171875 4.53125 334.132812 3.882812 C 332.546875 3.378906 294.765625 -8.261719 249.195312 11.402344 C 231.40625 19.078125 214.777344 30.578125 199.777344 45.582031 C 182.203125 63.152344 165.058594 83.488281 150.007812 104.183594 C 111.316406 95.097656 68.917969 105.597656 38.808594 135.707031 C 35.640625 138.878906 32.53125 142.386719 29.5625 146.140625 C 27.929688 148.210938 27.683594 151.050781 28.941406 153.371094 C 30.199219 155.683594 32.714844 157.03125 35.339844 156.789062 C 61.46875 154.371094 87.261719 159.390625 110.070312 170.859375 C 108.878906 173.507812 107.765625 176.109375 106.738281 178.65625 C 105.753906 181.109375 106.324219 183.910156 108.191406 185.777344 L 111.300781 188.886719 C 105.6875 192.496094 100.070312 197.015625 94.679688 202.40625 C 73.3125 223.773438 75.289062 259.246094 75.382812 260.746094 C 75.488281 262.40625 76.199219 263.894531 77.300781 264.992188 C 78.402344 266.09375 79.890625 266.808594 81.546875 266.910156 C 83.046875 267.003906 118.523438 268.980469 139.890625 247.613281 C 145.277344 242.226562 149.800781 236.605469 153.410156 230.996094 L 156.515625 234.101562 C 158.382812 235.972656 161.1875 236.542969 163.636719 235.554688 C 166.183594 234.53125 168.785156 233.414062 171.433594 232.222656 C 182.90625 255.03125 187.921875 280.828125 185.507812 306.953125 C 185.320312 308.9375 186.042969 310.859375 187.40625 312.222656 C 187.847656 312.664062 188.359375 313.046875 188.925781 313.355469 C 191.242188 314.609375 194.085938 314.367188 196.15625 312.730469 C 199.90625 309.765625 203.417969 306.652344 206.585938 303.484375 C 236.695312 273.378906 247.199219 230.980469 238.109375 192.289062" fill="#44d9e6"/></g><g id="change1_3"><path d="M 221.523438 120.769531 C 213.644531 112.890625 213.644531 100.066406 221.523438 92.1875 C 229.40625 84.304688 242.226562 84.304688 250.109375 92.1875 C 257.988281 100.066406 257.988281 112.890625 250.109375 120.769531 C 242.226562 128.652344 229.40625 128.652344 221.523438 120.769531 Z M 259.429688 82.863281 C 246.410156 69.84375 225.222656 69.84375 212.203125 82.863281 C 199.183594 95.886719 199.183594 117.070312 212.203125 130.089844 C 225.222656 143.109375 246.410156 143.109375 259.429688 130.089844 C 272.449219 117.070312 272.449219 95.886719 259.429688 82.863281" fill="#44d9e6"/></g><g id="change1_4"><path d="M 63.066406 279.226562 C 60.492188 276.652344 56.320312 276.652344 53.746094 279.226562 L 5.277344 327.695312 C 2.703125 330.269531 2.703125 334.441406 5.277344 337.015625 C 7.851562 339.589844 12.023438 339.589844 14.597656 337.015625 L 63.066406 288.546875 C 65.640625 285.972656 65.640625 281.800781 63.066406 279.226562" fill="#44d9e6"/></g><g id="change1_5"><path d="M 79.84375 176.695312 C 77.273438 174.121094 73.097656 174.121094 70.523438 176.695312 L 22.054688 225.164062 C 19.480469 227.738281 19.480469 231.914062 22.054688 234.484375 C 24.628906 237.058594 28.800781 237.0625 31.375 234.484375 L 79.84375 186.015625 C 82.417969 183.445312 82.417969 179.269531 79.84375 176.695312" fill="#44d9e6"/></g><g id="change1_6"><path d="M 59.71875 237.351562 C 57.148438 234.777344 52.972656 234.777344 50.398438 237.351562 L 1.929688 285.820312 C -0.644531 288.394531 -0.644531 292.570312 1.929688 295.140625 C 4.503906 297.714844 8.675781 297.714844 11.25 295.140625 L 59.71875 246.671875 C 62.292969 244.097656 62.292969 239.925781 59.71875 237.351562" fill="#44d9e6"/></g><g id="change1_7"><path d="M 168.152344 265.003906 C 165.578125 262.429688 161.40625 262.429688 158.832031 265.003906 L 110.363281 313.472656 C 107.789062 316.046875 107.789062 320.222656 110.363281 322.792969 C 112.9375 325.367188 117.109375 325.367188 119.683594 322.792969 L 168.152344 274.328125 C 170.726562 271.753906 170.726562 267.578125 168.152344 265.003906" fill="#44d9e6"/></g><g clip-path="url(#b)" id="change1_1"><path d="M 107.496094 285.128906 C 104.925781 282.554688 100.75 282.554688 98.175781 285.128906 L 49.707031 333.597656 C 47.132812 336.171875 47.132812 340.347656 49.707031 342.917969 C 52.28125 345.496094 56.457031 345.496094 59.03125 342.917969 L 107.496094 294.453125 C 110.070312 291.878906 110.070312 287.703125 107.496094 285.128906" fill="#44d9e6"/></g></g></svg>